<?xml version="1.0" encoding="UTF-8"?><svg xmlns="http://www.w3.org/2000/svg" xmlns:xlink="http://www.w3.org/1999/xlink" fill-opacity="1" color-rendering="auto" color-interpolation="auto" text-rendering="auto" stroke="black" stroke-linecap="square" width="1675" stroke-miterlimit="10" shape-rendering="auto" stroke-opacity="1" fill="black" stroke-dasharray="none" font-weight="normal" stroke-width="1" height="912" font-family="'Dialog'" font-style="normal" stroke-linejoin="miter" font-size="12px" stroke-dashoffset="0" image-rendering="auto">
  <!--Generated by ySVG 2.5-->
  <defs id="genericDefs"/>
  <g>
    <defs id="defs1">
      <clipPath clipPathUnits="userSpaceOnUse" id="clipPath1">
        <path d="M0 0 L1675 0 L1675 912 L0 912 L0 0 Z"/>
      </clipPath>
      <clipPath clipPathUnits="userSpaceOnUse" id="clipPath2">
        <path d="M6858 -251 L9287.0156 -251 L9287.0156 1071.5443 L6858 1071.5443 L6858 -251 Z"/>
      </clipPath>
    </defs>
    <g fill="white" text-rendering="geometricPrecision" shape-rendering="geometricPrecision" transform="scale(0.6896,0.6896) translate(-6858,251)" stroke="white">
      <rect x="6858" width="2430" height="1323" y="-251" clip-path="url(#clipPath2)" stroke="none"/>
    </g>
    <g text-rendering="geometricPrecision" stroke-miterlimit="1.45" shape-rendering="geometricPrecision" transform="matrix(0.6896,0,0,0.6896,-4729.1389,173.0846)" stroke-linecap="butt">
      <ellipse rx="59" fill="none" ry="26" clip-path="url(#clipPath2)" cx="7304.5536" cy="47.972"/>
      <text x="7269.6025" font-size="20px" y="55.8284" clip-path="url(#clipPath2)" font-family="sans-serif" stroke="none" xml:space="preserve">Начало</text>
    </g>
    <g text-rendering="geometricPrecision" stroke-miterlimit="1.45" shape-rendering="geometricPrecision" transform="matrix(0.6896,0,0,0.6896,-4729.1389,173.0846)" stroke-linecap="butt">
      <path fill="none" d="M7178.8135 155.7845 L7443.5537 155.7845 L7430.2935 207.7845 L7165.5537 207.7845 Z" clip-path="url(#clipPath2)"/>
      <text x="7175.6182" font-size="20px" y="189.6409" clip-path="url(#clipPath2)" font-family="sans-serif" stroke="none" xml:space="preserve">Считать напряжение с АЦП</text>
    </g>
    <g text-rendering="geometricPrecision" stroke-miterlimit="1.45" shape-rendering="geometricPrecision" transform="matrix(0.6896,0,0,0.6896,-4729.1389,173.0846)" stroke-linecap="butt">
      <path fill="none" d="M6978.5537 261.097 L7630.5537 261.097 L7630.5537 301.097 L6978.5537 301.097 Z" clip-path="url(#clipPath2)"/>
      <text x="7056.5117" font-size="20px" y="288.9534" clip-path="url(#clipPath2)" font-family="sans-serif" stroke="none" xml:space="preserve">отмасштабировать полученное значение по уровням</text>
    </g>
    <g text-rendering="geometricPrecision" stroke-miterlimit="1.45" shape-rendering="geometricPrecision" transform="matrix(0.6896,0,0,0.6896,-4729.1389,173.0846)" stroke-linecap="butt">
      <path fill="none" d="M7159.0537 354.4095 L7450.0537 354.4095 L7450.0537 394.4095 L7159.0537 394.4095 Z" clip-path="url(#clipPath2)"/>
      <text x="7161.541" font-size="20px" y="382.2659" clip-path="url(#clipPath2)" font-family="sans-serif" stroke="none" xml:space="preserve">Отправить данные на дисплей</text>
    </g>
    <g text-rendering="geometricPrecision" stroke-miterlimit="1.45" shape-rendering="geometricPrecision" transform="matrix(0.6896,0,0,0.6896,-4729.1389,173.0846)" stroke-linecap="butt">
      <path fill="none" d="M7120.3135 452.722 L7502.0537 452.722 L7488.7935 504.722 L7107.0537 504.722 Z" clip-path="url(#clipPath2)"/>
      <text x="7139.1387" font-size="20px" y="486.5784" clip-path="url(#clipPath2)" font-family="sans-serif" stroke="none" xml:space="preserve">Считать текущие скорости моторов</text>
    </g>
    <g text-rendering="geometricPrecision" stroke-miterlimit="1.45" shape-rendering="geometricPrecision" transform="matrix(0.6896,0,0,0.6896,-4729.1389,173.0846)" stroke-linecap="butt">
      <path fill="none" d="M7120.5537 563.0345 L7488.5537 563.0345 L7488.5537 603.0345 L7120.5537 603.0345 Z" clip-path="url(#clipPath2)"/>
      <text x="7134.0557" font-size="20px" y="590.8909" clip-path="url(#clipPath2)" font-family="sans-serif" stroke="none" xml:space="preserve">найти пифагором среднюю скорость</text>
    </g>
    <g text-rendering="geometricPrecision" stroke-miterlimit="1.45" shape-rendering="geometricPrecision" transform="matrix(0.6896,0,0,0.6896,-4729.1389,173.0846)" stroke-linecap="butt">
      <path fill="none" d="M6978.5537 661.347 L7630.5537 661.347 L7630.5537 701.347 L6978.5537 701.347 Z" clip-path="url(#clipPath2)"/>
      <text x="6985.8037" font-size="20px" y="689.2034" clip-path="url(#clipPath2)" font-family="sans-serif" stroke="none" xml:space="preserve">отмасштабировать полученное значение по уровням (светодиодам)</text>
    </g>
    <g text-rendering="geometricPrecision" stroke-miterlimit="1.45" shape-rendering="geometricPrecision" transform="matrix(0.6896,0,0,0.6896,-4729.1389,173.0846)" stroke-linecap="butt">
      <path fill="none" d="M7159.0537 759.6595 L7450.0537 759.6595 L7450.0537 799.6595 L7159.0537 799.6595 Z" clip-path="url(#clipPath2)"/>
      <text x="7161.541" font-size="20px" y="787.5159" clip-path="url(#clipPath2)" font-family="sans-serif" stroke="none" xml:space="preserve">Отправить данные на дисплей</text>
    </g>
    <g text-rendering="geometricPrecision" stroke-miterlimit="1.45" shape-rendering="geometricPrecision" transform="matrix(0.6896,0,0,0.6896,-4729.1389,173.0846)" stroke-linecap="butt">
      <ellipse rx="59" fill="none" ry="26" clip-path="url(#clipPath2)" cx="7304.5536" cy="883.972"/>
      <text x="7276.3555" font-size="20px" y="891.8284" clip-path="url(#clipPath2)" font-family="sans-serif" stroke="none" xml:space="preserve">Конец</text>
    </g>
    <g text-rendering="geometricPrecision" stroke-miterlimit="1.45" shape-rendering="geometricPrecision" transform="matrix(0.6896,0,0,0.6896,-4729.1389,173.0846)" stroke-linecap="butt">
      <path fill="none" d="M7304.5537 73.9439 L7304.5537 147.7985" clip-path="url(#clipPath2)"/>
    </g>
    <g text-rendering="geometricPrecision" stroke-miterlimit="1.45" shape-rendering="geometricPrecision" transform="matrix(0.6896,0,0,0.6896,-4729.1389,173.0846)" stroke-linecap="butt">
      <path d="M7304.5537 155.7985 L7309.5537 143.7985 L7304.5537 146.7985 L7299.5537 143.7985 Z" stroke="none" clip-path="url(#clipPath2)"/>
      <path fill="none" d="M7304.5537 207.8249 L7304.5537 253.0974" clip-path="url(#clipPath2)"/>
      <path d="M7304.5537 261.0974 L7309.5537 249.0974 L7304.5537 252.0974 L7299.5537 249.0974 Z" clip-path="url(#clipPath2)" stroke="none"/>
      <path fill="none" d="M7304.5537 301.099 L7304.5537 346.3994" clip-path="url(#clipPath2)"/>
      <path d="M7304.5537 354.3994 L7309.5537 342.3994 L7304.5537 345.3994 L7299.5537 342.3994 Z" clip-path="url(#clipPath2)" stroke="none"/>
      <path fill="none" d="M7304.5537 394.401 L7304.5537 444.7422" clip-path="url(#clipPath2)"/>
      <path d="M7304.5537 452.7422 L7309.5537 440.7422 L7304.5537 443.7422 L7299.5537 440.7422 Z" clip-path="url(#clipPath2)" stroke="none"/>
      <path fill="none" d="M7304.5537 504.7237 L7304.5537 555.0361" clip-path="url(#clipPath2)"/>
      <path d="M7304.5537 563.0361 L7309.5537 551.0361 L7304.5537 554.0361 L7299.5537 551.0361 Z" clip-path="url(#clipPath2)" stroke="none"/>
      <path fill="none" d="M7304.5537 603.0522 L7304.5537 653.3527" clip-path="url(#clipPath2)"/>
      <path d="M7304.5537 661.3527 L7309.5537 649.3527 L7304.5537 652.3527 L7299.5537 649.3527 Z" clip-path="url(#clipPath2)" stroke="none"/>
      <path fill="none" d="M7304.5537 701.3647 L7304.5537 751.6652" clip-path="url(#clipPath2)"/>
      <path d="M7304.5537 759.6652 L7309.5537 747.6652 L7304.5537 750.6652 L7299.5537 747.6652 Z" clip-path="url(#clipPath2)" stroke="none"/>
      <path fill="none" d="M7304.5537 799.651 L7304.5537 849.9922" clip-path="url(#clipPath2)"/>
      <path d="M7304.5537 857.9922 L7309.5537 845.9922 L7304.5537 848.9922 L7299.5537 845.9922 Z" clip-path="url(#clipPath2)" stroke="none"/>
    </g>
  </g>
</svg>
