<?xml version="1.0" encoding="UTF-8"?><svg xmlns="http://www.w3.org/2000/svg" xmlns:xlink="http://www.w3.org/1999/xlink" fill-opacity="1" color-rendering="auto" color-interpolation="auto" text-rendering="auto" stroke="black" stroke-linecap="square" width="1123" stroke-miterlimit="10" shape-rendering="auto" stroke-opacity="1" fill="black" stroke-dasharray="none" font-weight="normal" stroke-width="1" height="732" font-family="'Dialog'" font-style="normal" stroke-linejoin="miter" font-size="12px" stroke-dashoffset="0" image-rendering="auto">
  <!--Generated by ySVG 2.5-->
  <defs id="genericDefs"/>
  <g>
    <defs id="defs1">
      <clipPath clipPathUnits="userSpaceOnUse" id="clipPath1">
        <path d="M0 0 L1123 0 L1123 732 L0 732 L0 0 Z"/>
      </clipPath>
      <clipPath clipPathUnits="userSpaceOnUse" id="clipPath2">
        <path d="M498 751 L1550.6799 751 L1550.6799 1437.1636 L498 1437.1636 L498 751 Z"/>
      </clipPath>
    </defs>
    <g fill="white" text-rendering="geometricPrecision" shape-rendering="geometricPrecision" transform="scale(1.0668,1.0668) translate(-498,-751)" stroke="white">
      <rect x="498" width="1053" height="687" y="751" clip-path="url(#clipPath2)" stroke="none"/>
    </g>
    <g text-rendering="geometricPrecision" stroke-miterlimit="1.45" shape-rendering="geometricPrecision" transform="matrix(1.0668,0,0,1.0668,-531.2669,-801.1675)" stroke-linecap="butt">
      <ellipse rx="59" fill="none" ry="26" clip-path="url(#clipPath2)" cx="1082.9848" cy="839.7098"/>
      <text x="1048.0337" font-size="20px" y="847.5662" clip-path="url(#clipPath2)" font-family="sans-serif" stroke="none" xml:space="preserve">Начало</text>
    </g>
    <g text-rendering="geometricPrecision" stroke-miterlimit="1.45" shape-rendering="geometricPrecision" transform="matrix(1.0668,0,0,1.0668,-531.2669,-801.1675)" stroke-linecap="butt">
      <rect fill="none" x="871.9848" width="422" height="70" y="917.7098" clip-path="url(#clipPath2)"/>
      <path fill="none" d="M881.9848 917.7098 L881.9848 987.7098 M1283.9849 917.7098 L1283.9849 987.7098 M881.9848 917.7098 Z" clip-path="url(#clipPath2)"/>
      <text x="907.9116" font-size="20px" y="960.5662" clip-path="url(#clipPath2)" font-family="sans-serif" stroke="none" xml:space="preserve">ВЫЧИСЛИТЬ_АБСОЛЮТНЫЕ_УГЛЫ</text>
    </g>
    <g text-rendering="geometricPrecision" stroke-miterlimit="1.45" shape-rendering="geometricPrecision" transform="matrix(1.0668,0,0,1.0668,-531.2669,-801.1675)" stroke-linecap="butt">
      <path fill="none" d="M840.4848 1039.7098 L1325.4849 1039.7098 L1325.4849 1091.7098 L840.4848 1091.7098 Z" clip-path="url(#clipPath2)"/>
      <text x="862.9067" font-size="20px" y="1073.5663" clip-path="url(#clipPath2)" font-family="sans-serif" stroke="none" xml:space="preserve">вычислить проекцию ориентации джойстика k1</text>
    </g>
    <g text-rendering="geometricPrecision" stroke-miterlimit="1.45" shape-rendering="geometricPrecision" transform="matrix(1.0668,0,0,1.0668,-531.2669,-801.1675)" stroke-linecap="butt">
      <path fill="none" d="M840.4848 1143.7098 L1325.4849 1143.7098 L1325.4849 1195.7098 L840.4848 1195.7098 Z" clip-path="url(#clipPath2)"/>
      <text x="848.7221" font-size="20px" y="1165.3153" clip-path="url(#clipPath2)" font-family="sans-serif" stroke="none" xml:space="preserve">УголПереднегоШасси = УголПереднегоШасси - k1</text>
      <text x="870.7534" font-size="20px" y="1189.8173" clip-path="url(#clipPath2)" font-family="sans-serif" stroke="none" xml:space="preserve">УголЗаднегоШасси = УголЗаднегоШасси + k1</text>
    </g>
    <g text-rendering="geometricPrecision" stroke-miterlimit="1.45" shape-rendering="geometricPrecision" transform="matrix(1.0668,0,0,1.0668,-531.2669,-801.1675)" stroke-linecap="butt">
      <path fill="none" d="M769.0095 1248.8815 L1394.6167 1248.8815 L1394.6167 1300.8815 L769.0095 1300.8815 Z" clip-path="url(#clipPath2)"/>
      <text x="805.0651" font-size="20px" y="1282.7379" clip-path="url(#clipPath2)" font-family="sans-serif" stroke="none" xml:space="preserve">SendToLocalPid(УголПереднегоШасси, УголЗаднегоШасси)</text>
    </g>
    <g text-rendering="geometricPrecision" stroke-miterlimit="1.45" shape-rendering="geometricPrecision" transform="matrix(1.0668,0,0,1.0668,-531.2669,-801.1675)" stroke-linecap="butt">
      <ellipse rx="59" fill="none" ry="26" clip-path="url(#clipPath2)" cx="1082.9848" cy="1377.7098"/>
      <text x="1054.7866" font-size="20px" y="1385.5663" clip-path="url(#clipPath2)" font-family="sans-serif" stroke="none" xml:space="preserve">Конец</text>
    </g>
    <g text-rendering="geometricPrecision" stroke-miterlimit="1.45" shape-rendering="geometricPrecision" transform="matrix(1.0668,0,0,1.0668,-531.2669,-801.1675)" stroke-linecap="butt">
      <path fill="none" d="M1082.9849 865.7252 L1082.9849 909.6696" clip-path="url(#clipPath2)"/>
    </g>
    <g text-rendering="geometricPrecision" stroke-miterlimit="1.45" shape-rendering="geometricPrecision" transform="matrix(1.0668,0,0,1.0668,-531.2669,-801.1675)" stroke-linecap="butt">
      <path d="M1082.9849 917.6696 L1087.9849 905.6696 L1082.9849 908.6696 L1077.9849 905.6696 Z" stroke="none" clip-path="url(#clipPath2)"/>
      <path fill="none" d="M1082.9849 987.7188 L1082.9849 1031.7001" clip-path="url(#clipPath2)"/>
      <path d="M1082.9849 1039.7001 L1087.9849 1027.7001 L1082.9849 1030.7001 L1077.9849 1027.7001 Z" clip-path="url(#clipPath2)" stroke="none"/>
      <path fill="none" d="M1082.9849 1091.7352 L1082.9849 1135.7056" clip-path="url(#clipPath2)"/>
      <path d="M1082.9849 1143.7056 L1087.9849 1131.7056 L1082.9849 1134.7056 L1077.9849 1131.7056 Z" clip-path="url(#clipPath2)" stroke="none"/>
      <path fill="none" d="M1082.6951 1195.7202 L1082.192 1240.8685" clip-path="url(#clipPath2)"/>
      <path d="M1082.1029 1248.868 L1087.2362 1236.9244 L1082.2031 1239.8687 L1077.2369 1236.8131 Z" clip-path="url(#clipPath2)" stroke="none"/>
      <path fill="none" d="M1082.1091 1300.8647 L1082.5974 1343.7075" clip-path="url(#clipPath2)"/>
      <path d="M1082.6885 1351.707 L1087.5515 1339.6509 L1082.5861 1342.7076 L1077.5522 1339.7648 Z" clip-path="url(#clipPath2)" stroke="none"/>
    </g>
  </g>
</svg>
