<?xml version="1.0" encoding="UTF-8"?><svg xmlns="http://www.w3.org/2000/svg" xmlns:xlink="http://www.w3.org/1999/xlink" fill-opacity="1" color-rendering="auto" color-interpolation="auto" text-rendering="auto" stroke="black" stroke-linecap="square" width="1688" stroke-miterlimit="10" shape-rendering="auto" stroke-opacity="1" fill="black" stroke-dasharray="none" font-weight="normal" stroke-width="1" height="2263" font-family="'Dialog'" font-style="normal" stroke-linejoin="miter" font-size="12px" stroke-dashoffset="0" image-rendering="auto">
  <!--Generated by ySVG 2.5-->
  <defs id="genericDefs"/>
  <g>
    <defs id="defs1">
      <linearGradient x1="624.5361" gradientUnits="userSpaceOnUse" x2="785.5361" y1="1372.3173" y2="1442.3173" id="linearGradient1" spreadMethod="reflect">
        <stop stop-opacity="1" stop-color="white" offset="0%"/>
        <stop stop-opacity="1" stop-color="white" offset="100%"/>
      </linearGradient>
      <linearGradient x1="737.2722" gradientUnits="userSpaceOnUse" x2="1297.2056" y1="1508.8345" y2="1611.6344" id="linearGradient2" spreadMethod="reflect">
        <stop stop-opacity="1" stop-color="white" offset="0%"/>
        <stop stop-opacity="1" stop-color="white" offset="100%"/>
      </linearGradient>
      <linearGradient x1="1314.8778" gradientUnits="userSpaceOnUse" x2="1874.8112" y1="1504.6689" y2="1607.4689" id="linearGradient3" spreadMethod="reflect">
        <stop stop-opacity="1" stop-color="white" offset="0%"/>
        <stop stop-opacity="1" stop-color="white" offset="100%"/>
      </linearGradient>
      <clipPath clipPathUnits="userSpaceOnUse" id="clipPath1">
        <path d="M0 0 L1688 0 L1688 2263 L0 2263 L0 0 Z"/>
      </clipPath>
      <clipPath clipPathUnits="userSpaceOnUse" id="clipPath2">
        <path d="M333 137 L2021 137 L2021 2400 L333 2400 L333 137 Z"/>
      </clipPath>
    </defs>
    <g fill="white" text-rendering="geometricPrecision" shape-rendering="geometricPrecision" transform="translate(-333,-137)" stroke="white">
      <rect x="333" width="1688" height="2263" y="137" clip-path="url(#clipPath2)" stroke="none"/>
    </g>
    <g text-rendering="geometricPrecision" stroke-miterlimit="1.45" shape-rendering="geometricPrecision" transform="matrix(1,0,0,1,-333,-137)" stroke-linecap="butt">
      <rect x="1300" y="152" clip-path="url(#clipPath2)" fill="none" width="152" rx="32.5" ry="32.5" height="65"/>
      <text x="1341.0488" font-size="20px" y="192.3564" clip-path="url(#clipPath2)" font-family="sans-serif" stroke="none" xml:space="preserve">Начало</text>
    </g>
    <g text-rendering="geometricPrecision" stroke-miterlimit="1.45" shape-rendering="geometricPrecision" transform="matrix(1,0,0,1,-333,-137)" stroke-linecap="butt">
      <path fill="none" d="M1125.6851 247 L1648.5 247 L1626.3149 334 L1103.5 334 Z" clip-path="url(#clipPath2)"/>
      <text x="1128.9492" font-size="20px" y="286.1055" clip-path="url(#clipPath2)" font-family="sans-serif" stroke="none" xml:space="preserve">Инициализация параметров отслеживания и камеры</text>
      <text x="1189.7354" font-size="20px" y="310.6074" clip-path="url(#clipPath2)" font-family="sans-serif" stroke="none" xml:space="preserve">а также физических параметров робота</text>
    </g>
    <g text-rendering="geometricPrecision" stroke-miterlimit="1.45" shape-rendering="geometricPrecision" transform="matrix(1,0,0,1,-333,-137)" stroke-linecap="butt">
      <path fill="none" d="M1199.5 421 L1552.5 421 L1552.5 461 L1199.5 461 Z" clip-path="url(#clipPath2)"/>
      <text x="1215.1016" font-size="20px" y="447.1074" clip-path="url(#clipPath2)" font-family="sans-serif" stroke="none" xml:space="preserve">Получение кадра из видеоопотока</text>
    </g>
    <g text-rendering="geometricPrecision" stroke-miterlimit="1.45" shape-rendering="geometricPrecision" transform="matrix(1,0,0,1,-333,-137)" stroke-linecap="butt">
      <rect fill="none" x="1150.1305" width="450.1497" height="87" y="523.6418" clip-path="url(#clipPath2)"/>
      <path fill="none" d="M1160.1305 523.6418 L1160.1305 610.6418 M1590.2802 523.6418 L1590.2802 610.6418 M1160.1305 523.6418 Z" clip-path="url(#clipPath2)"/>
      <text x="1158.8577" font-size="20px" y="574.9982" clip-path="url(#clipPath2)" font-family="sans-serif" stroke="none" xml:space="preserve">смещениеХ=ПОИСК_ОБЪЕКТА_НЕЙРОСЕТЬ</text>
    </g>
    <g text-rendering="geometricPrecision" stroke-miterlimit="1.45" shape-rendering="geometricPrecision" transform="matrix(1,0,0,1,-333,-137)" stroke-linecap="butt">
      <path fill="none" d="M1376 671.6942 L1500 737.9442 L1376 804.1942 L1252 737.9442 Z" clip-path="url(#clipPath2)"/>
      <text x="1299.7988" font-size="20px" y="745.8006" clip-path="url(#clipPath2)" font-family="sans-serif" stroke="none" xml:space="preserve">Объект найден?</text>
    </g>
    <g text-rendering="geometricPrecision" shape-rendering="geometricPrecision" transform="matrix(1,0,0,1,-333,-137)">
      <circle r="4.7814" clip-path="url(#clipPath2)" cx="1376" cy="377.5" stroke="none"/>
      <circle stroke-linecap="butt" clip-path="url(#clipPath2)" fill="none" r="4.7814" cx="1376" cy="377.5" stroke-miterlimit="1.45"/>
    </g>
    <g text-rendering="geometricPrecision" stroke-miterlimit="1.45" shape-rendering="geometricPrecision" transform="matrix(1,0,0,1,-333,-137)" stroke-linecap="butt">
      <path fill="none" d="M949.048 909.1229 L1361.016 909.1229 L1361.016 949.1229 L949.048 949.1229 Z" clip-path="url(#clipPath2)"/>
      <text x="987.1511" font-size="20px" y="935.2303" clip-path="url(#clipPath2)" font-family="sans-serif" stroke="none" xml:space="preserve">Считывание расстояния до объекта</text>
    </g>
    <g text-rendering="geometricPrecision" stroke-miterlimit="1.45" shape-rendering="geometricPrecision" transform="matrix(1,0,0,1,-333,-137)" stroke-linecap="butt">
      <path fill="none" d="M1155.032 1032.4117 L1278.024 1075.9117 L1155.032 1119.4117 L1032.04 1075.9117 Z" clip-path="url(#clipPath2)"/>
      <text x="1057.8396" font-size="20px" y="1083.7682" clip-path="url(#clipPath2)" font-family="sans-serif" stroke="none" xml:space="preserve">Расстояние &lt; 20 cм?</text>
    </g>
    <g text-rendering="geometricPrecision" stroke-miterlimit="1.45" shape-rendering="geometricPrecision" transform="matrix(1,0,0,1,-333,-137)" stroke-linecap="butt">
      <rect fill="none" x="1776.2032" width="229.618" height="87" y="1223.7617" clip-path="url(#clipPath2)"/>
      <path fill="none" d="M1786.2032 1223.7617 L1786.2032 1310.7617 M1995.8213 1223.7617 L1995.8213 1310.7617 M1786.2032 1223.7617 Z" clip-path="url(#clipPath2)"/>
      <text x="1793.0776" font-size="20px" y="1275.1182" clip-path="url(#clipPath2)" font-family="sans-serif" stroke="none" xml:space="preserve">ПРЕДУПРЕЖДЕНИЕ</text>
    </g>
    <g text-rendering="geometricPrecision" stroke-miterlimit="1.45" shape-rendering="geometricPrecision" transform="matrix(1,0,0,1,-333,-137)" stroke-linecap="butt">
      <path fill="none" d="M947.798 1174.6617 L1099.048 1249.6617 L947.798 1324.6617 L796.548 1249.6617 Z" clip-path="url(#clipPath2)"/>
      <text x="812.8566" font-size="20px" y="1257.5182" clip-path="url(#clipPath2)" font-family="sans-serif" stroke="none" xml:space="preserve">Объект в центральной зоне?</text>
    </g>
    <g text-rendering="geometricPrecision" stroke-miterlimit="1.45" shape-rendering="geometricPrecision" transform="matrix(1,0,0,1,-333,-137)" stroke-linecap="butt">
      <path fill="none" d="M1191.0918 1319.5367 L1309.2168 1373.0367 L1191.0918 1426.5367 L1072.9668 1373.0367 Z" clip-path="url(#clipPath2)"/>
      <text x="1085.7451" font-size="20px" y="1380.8932" clip-path="url(#clipPath2)" font-family="sans-serif" stroke="none" xml:space="preserve">Объект в  левой зоне?</text>
    </g>
    <g text-rendering="geometricPrecision" shape-rendering="geometricPrecision" transform="matrix(1,0,0,1,-333,-137)">
      <circle r="4.7814" clip-path="url(#clipPath2)" cx="1191.0918" cy="1775.656" stroke="none"/>
      <circle stroke-linecap="butt" clip-path="url(#clipPath2)" fill="none" r="4.7814" cx="1191.0918" cy="1775.656" stroke-miterlimit="1.45"/>
    </g>
    <g text-rendering="geometricPrecision" stroke-miterlimit="1.45" shape-rendering="geometricPrecision" transform="matrix(1,0,0,1,-333,-137)" stroke-linecap="butt">
      <path fill="none" d="M1197.2036 2046.1218 L1325.3286 2111.7468 L1197.2036 2177.3718 L1069.0786 2111.7468 Z" clip-path="url(#clipPath2)"/>
      <text x="1099.2886" font-size="20px" y="2119.6033" clip-path="url(#clipPath2)" font-family="sans-serif" stroke="none" xml:space="preserve">Продолжать работу?</text>
    </g>
    <g text-rendering="geometricPrecision" stroke-miterlimit="1.45" shape-rendering="geometricPrecision" transform="matrix(1,0,0,1,-333,-137)" stroke-linecap="butt">
      <path fill="none" d="M1302.6083 2174.793 L1505.1083 2174.793 L1505.1083 2261.043 L1302.6083 2261.043 Z" clip-path="url(#clipPath2)"/>
      <text x="1318.6776" font-size="20px" y="2225.7744" clip-path="url(#clipPath2)" font-family="sans-serif" stroke="none" xml:space="preserve">Очистить ресурсы</text>
    </g>
    <g text-rendering="geometricPrecision" stroke-miterlimit="1.45" shape-rendering="geometricPrecision" transform="matrix(1,0,0,1,-333,-137)" stroke-linecap="butt">
      <rect x="1327.5128" y="2319.5411" clip-path="url(#clipPath2)" fill="none" width="152" rx="32.5" ry="32.5" height="65"/>
      <text x="1375.3146" font-size="20px" y="2359.8975" clip-path="url(#clipPath2)" font-family="sans-serif" stroke="none" xml:space="preserve">Конец</text>
    </g>
    <g fill="url(#linearGradient1)" text-rendering="geometricPrecision" shape-rendering="geometricPrecision" transform="matrix(1,0,0,1,-333,-137)" stroke="url(#linearGradient1)">
      <path d="M624.5361 1372.3173 L785.5361 1372.3173 L785.5361 1442.3173 L624.5361 1442.3173 Z" stroke="none" clip-path="url(#clipPath2)"/>
    </g>
    <g text-rendering="geometricPrecision" stroke-miterlimit="1.45" shape-rendering="geometricPrecision" transform="matrix(1,0,0,1,-333,-137)" stroke-linecap="butt">
      <path fill="none" d="M624.5361 1372.3173 L785.5361 1372.3173 L785.5361 1442.3173 L624.5361 1442.3173 Z" clip-path="url(#clipPath2)"/>
      <text x="641.3857" font-size="24px" y="1402.0438" clip-path="url(#clipPath2)" font-family="sans-serif" stroke="none" xml:space="preserve">x' = x + x_cf</text>
      <text x="649.0381" font-size="24px" y="1431.4462" clip-path="url(#clipPath2)" font-family="sans-serif" stroke="none" xml:space="preserve">teta' = teta</text>
    </g>
    <g text-rendering="geometricPrecision" stroke-miterlimit="1.45" shape-rendering="geometricPrecision" transform="matrix(1,0,0,1,-333,-137)" stroke-linecap="butt">
      <rect fill="none" x="1095.9797" width="197.6655" height="75" y="1825.3676" clip-path="url(#clipPath2)"/>
      <path fill="none" d="M1105.9797 1825.3677 L1105.9797 1900.3677 M1283.6451 1825.3677 L1283.6451 1900.3677 M1105.9797 1825.3677 Z" clip-path="url(#clipPath2)"/>
      <text x="1121.6141" font-size="20px" y="1870.7241" clip-path="url(#clipPath2)" font-family="sans-serif" stroke="none" xml:space="preserve">w = ОЗК(x',teta')</text>
    </g>
    <g text-rendering="geometricPrecision" stroke-miterlimit="1.45" shape-rendering="geometricPrecision" transform="matrix(1,0,0,1,-333,-137)" stroke-linecap="butt">
      <rect fill="none" x="1068.5322" width="253.9197" height="75" y="1933.2361" clip-path="url(#clipPath2)"/>
      <path fill="none" d="M1078.5322 1933.2361 L1078.5322 2008.2361 M1312.4519 1933.2361 L1312.4519 2008.2361 M1078.5322 1933.2361 Z" clip-path="url(#clipPath2)"/>
      <text x="1108.2264" font-size="20px" y="1978.5925" clip-path="url(#clipPath2)" font-family="sans-serif" stroke="none" xml:space="preserve">SendToLocalPid(w)</text>
    </g>
    <g fill="url(#linearGradient2)" text-rendering="geometricPrecision" shape-rendering="geometricPrecision" transform="matrix(1,0,0,1,-333,-137)" stroke="url(#linearGradient2)">
      <path d="M737.2722 1508.8345 L1297.2056 1508.8345 L1297.2056 1611.6344 L737.2722 1611.6344 Z" stroke="none" clip-path="url(#clipPath2)"/>
    </g>
    <g text-rendering="geometricPrecision" stroke-miterlimit="1.45" shape-rendering="geometricPrecision" transform="matrix(1,0,0,1,-333,-137)" stroke-linecap="butt">
      <path fill="none" d="M737.2722 1508.8345 L1297.2056 1508.8345 L1297.2056 1611.6344 L737.2722 1611.6344 Z" clip-path="url(#clipPath2)"/>
      <text x="745.3405" font-size="24px" y="1540.2599" clip-path="url(#clipPath2)" font-family="sans-serif" stroke="none" xml:space="preserve">teta_diff = ОТМАШТАБИРОВАТЬ(смещениеX, pi)</text>
      <text x="952.9264" font-size="24px" y="1569.6622" clip-path="url(#clipPath2)" font-family="sans-serif" stroke="none" xml:space="preserve">x' = x + x_cr</text>
      <text x="904.8678" font-size="24px" y="1599.0646" clip-path="url(#clipPath2)" font-family="sans-serif" stroke="none" xml:space="preserve">teta' = teta + teta_diff</text>
    </g>
    <g fill="url(#linearGradient3)" text-rendering="geometricPrecision" shape-rendering="geometricPrecision" transform="matrix(1,0,0,1,-333,-137)" stroke="url(#linearGradient3)">
      <path d="M1314.8778 1504.6689 L1874.8112 1504.6689 L1874.8112 1607.4689 L1314.8778 1607.4689 Z" stroke="none" clip-path="url(#clipPath2)"/>
    </g>
    <g text-rendering="geometricPrecision" stroke-miterlimit="1.45" shape-rendering="geometricPrecision" transform="matrix(1,0,0,1,-333,-137)" stroke-linecap="butt">
      <path fill="none" d="M1314.8778 1504.6689 L1874.8112 1504.6689 L1874.8112 1607.4689 L1314.8778 1607.4689 Z" clip-path="url(#clipPath2)"/>
      <text x="1318.95" font-size="24px" y="1536.0944" clip-path="url(#clipPath2)" font-family="sans-serif" stroke="none" xml:space="preserve">teta_diff = ОТМАШТАБИРОВАТЬ(смещениеX, -pi)</text>
      <text x="1530.532" font-size="24px" y="1565.4967" clip-path="url(#clipPath2)" font-family="sans-serif" stroke="none" xml:space="preserve">x' = x + x_cr</text>
      <text x="1482.4734" font-size="24px" y="1594.899" clip-path="url(#clipPath2)" font-family="sans-serif" stroke="none" xml:space="preserve">teta' = teta + teta_diff</text>
    </g>
    <g text-rendering="geometricPrecision" stroke-miterlimit="1.45" shape-rendering="geometricPrecision" transform="matrix(1,0,0,1,-333,-137)" stroke-linecap="butt">
      <path fill="none" d="M1376 216.978 L1376 239.0258" clip-path="url(#clipPath2)"/>
    </g>
    <g text-rendering="geometricPrecision" stroke-miterlimit="1.45" shape-rendering="geometricPrecision" transform="matrix(1,0,0,1,-333,-137)" stroke-linecap="butt">
      <path d="M1376 247.0258 L1381 235.0258 L1376 238.0258 L1371 235.0258 Z" stroke="none" clip-path="url(#clipPath2)"/>
      <path fill="none" d="M1376 333.9672 L1376 413.0097" clip-path="url(#clipPath2)"/>
      <path d="M1376 421.0097 L1381 409.0097 L1376 412.0097 L1371 409.0097 Z" clip-path="url(#clipPath2)" stroke="none"/>
      <path fill="none" d="M1375.874 460.9868 L1375.5299 515.6277" clip-path="url(#clipPath2)"/>
      <path d="M1375.4795 523.6276 L1380.5551 511.6593 L1375.5363 514.6277 L1370.5552 511.5963 Z" clip-path="url(#clipPath2)" stroke="none"/>
      <path fill="none" d="M1375.4077 610.6346 L1375.6552 663.834" clip-path="url(#clipPath2)"/>
      <path d="M1375.6924 671.834 L1380.6365 659.8109 L1375.6505 662.8341 L1370.6366 659.8574 Z" clip-path="url(#clipPath2)" stroke="none"/>
      <path fill="none" d="M1500.0162 737.9442 L1647.86 737.9442 L1653.4229 379.8841 L1388.7747 377.6098" clip-path="url(#clipPath2)"/>
      <path d="M1380.7749 377.541 L1392.7314 382.644 L1389.7745 377.6184 L1392.8174 372.6443 Z" clip-path="url(#clipPath2)" stroke="none"/>
      <text x="1545.0392" font-size="18px" y="715.015" clip-path="url(#clipPath2)" font-family="sans-serif" stroke="none" xml:space="preserve">НЕТ</text>
      <path fill="none" d="M1252.0022 737.9442 L1155.032 737.9442 L1155.032 850.3729 L1155.032 901.0893" clip-path="url(#clipPath2)"/>
      <path d="M1155.032 909.0893 L1160.032 897.0893 L1155.032 900.0893 L1150.032 897.0893 Z" clip-path="url(#clipPath2)" stroke="none"/>
      <text x="1179.8524" font-size="20px" y="715.8006" clip-path="url(#clipPath2)" font-family="sans-serif" stroke="none" xml:space="preserve">ДА</text>
      <path fill="none" d="M1155.032 949.1558 L1155.032 1024.4323" clip-path="url(#clipPath2)"/>
      <path d="M1155.032 1032.4323 L1160.032 1020.4323 L1155.032 1023.4323 L1150.032 1020.4323 Z" clip-path="url(#clipPath2)" stroke="none"/>
      <path fill="none" d="M1277.5896 1076.0786 L1889.2123 1076.9117 L1890.5248 1215.7177" clip-path="url(#clipPath2)"/>
      <path d="M1890.6005 1223.7173 L1895.4867 1211.6705 L1890.5153 1214.7177 L1885.4872 1211.7651 Z" clip-path="url(#clipPath2)" stroke="none"/>
      <text x="1577.1385" font-size="20px" y="1054.3702" clip-path="url(#clipPath2)" font-family="sans-serif" stroke="none" xml:space="preserve">НЕТ</text>
      <path fill="none" d="M1032.0627 1075.9117 L947.798 1075.9117 L947.798 1166.6217" clip-path="url(#clipPath2)"/>
      <path d="M947.798 1174.6217 L952.798 1162.6217 L947.798 1165.6217 L942.798 1162.6217 Z" clip-path="url(#clipPath2)" stroke="none"/>
      <text x="966.2554" font-size="20px" y="1053.7682" clip-path="url(#clipPath2)" font-family="sans-serif" stroke="none" xml:space="preserve">ДА</text>
      <path fill="none" d="M1099.0547 1249.6617 L1191.0918 1249.6617 L1191.0918 1311.512" clip-path="url(#clipPath2)"/>
      <path d="M1191.0918 1319.512 L1196.0918 1307.512 L1191.0918 1310.512 L1186.0918 1307.512 Z" clip-path="url(#clipPath2)" stroke="none"/>
      <text x="1138.5698" font-size="20px" y="1227.5182" clip-path="url(#clipPath2)" font-family="sans-serif" stroke="none" xml:space="preserve">НЕТ</text>
      <path fill="none" d="M1890.8256 1310.7474 L1888.8289 1775.806 L1203.9041 1775.6588" clip-path="url(#clipPath2)"/>
      <path d="M1195.9041 1775.6571 L1207.903 1780.6597 L1204.9041 1775.6591 L1207.9052 1770.6597 Z" clip-path="url(#clipPath2)" stroke="none"/>
      <path fill="none" d="M1071.3169 2112.9009 L348.6016 2119.5264 L349.4914 377.5 L1363.207 377.5" clip-path="url(#clipPath2)"/>
      <path d="M1371.207 377.5 L1359.207 372.5 L1362.207 377.5 L1359.207 382.5 Z" clip-path="url(#clipPath2)" stroke="none"/>
      <text x="685.039" font-size="20px" y="2094.1741" clip-path="url(#clipPath2)" font-family="sans-serif" stroke="none" xml:space="preserve">ДА</text>
      <path fill="none" d="M1324.0911 2112.3752 L1406.646 2112.7839 L1405.2144 2166.7737" clip-path="url(#clipPath2)"/>
      <path d="M1405.0023 2174.7708 L1410.3186 2162.9075 L1405.2408 2165.7739 L1400.3221 2162.6423 Z" clip-path="url(#clipPath2)" stroke="none"/>
      <text x="1359.5615" font-size="20px" y="2090.5061" clip-path="url(#clipPath2)" font-family="sans-serif" stroke="none" xml:space="preserve">НЕТ</text>
      <path fill="none" d="M1403.7472 2261.043 L1403.6171 2311.5608" clip-path="url(#clipPath2)"/>
      <path d="M1403.5964 2319.5608 L1408.6273 2307.5737 L1403.6196 2310.5608 L1398.6274 2307.5479 Z" clip-path="url(#clipPath2)" stroke="none"/>
      <path fill="none" d="M796.5249 1249.6617 L703.0361 1249.6617 L703.0361 1364.2817" clip-path="url(#clipPath2)"/>
      <path d="M703.0361 1372.2817 L708.0361 1360.2817 L703.0361 1363.2817 L698.0361 1360.2817 Z" clip-path="url(#clipPath2)" stroke="none"/>
      <text x="726.1285" font-size="20px" y="1227.5182" clip-path="url(#clipPath2)" font-family="sans-serif" stroke="none" xml:space="preserve">ДА</text>
      <path fill="none" d="M705.2966 1442.2845 L707.7822 1775.9811 L1178.2834 1775.6647" clip-path="url(#clipPath2)"/>
      <path d="M1186.2834 1775.6593 L1174.2802 1770.6674 L1177.2834 1775.6653 L1174.2869 1780.6674 Z" clip-path="url(#clipPath2)" stroke="none"/>
      <path fill="none" d="M1191.297 1780.468 L1192.87 1817.3364" clip-path="url(#clipPath2)"/>
      <path d="M1193.2109 1825.3291 L1197.6949 1813.127 L1192.8274 1816.3373 L1187.7041 1813.5531 Z" clip-path="url(#clipPath2)" stroke="none"/>
      <path fill="none" d="M1195.0486 1900.3425 L1195.2053 1925.2366" clip-path="url(#clipPath2)"/>
      <path d="M1195.2557 1933.2365 L1200.1801 1921.2052 L1195.199 1924.2366 L1190.1802 1921.2682 Z" clip-path="url(#clipPath2)" stroke="none"/>
      <path fill="none" d="M1195.9471 2008.2266 L1196.3147 2038.5165" clip-path="url(#clipPath2)"/>
      <path d="M1196.4119 2046.5159 L1201.2657 2034.4561 L1196.3025 2037.5165 L1191.2665 2034.5775 Z" clip-path="url(#clipPath2)" stroke="none"/>
      <path fill="none" d="M1073.3484 1372.865 L1015.7822 1372.7811 L1016.7773 1500.8406" clip-path="url(#clipPath2)"/>
      <path d="M1016.8395 1508.8403 L1021.7461 1496.8019 L1016.7696 1499.8406 L1011.7464 1496.8795 Z" clip-path="url(#clipPath2)" stroke="none"/>
      <text x="1020.7328" font-size="20px" y="1350.6643" clip-path="url(#clipPath2)" font-family="sans-serif" stroke="none" xml:space="preserve">ДА</text>
      <path fill="none" d="M1017.6956 1611.6084 L1019.1548 1775.7262 L1185.5684 1775.1747 L1186.3019 1775.2386" clip-path="url(#clipPath2)"/>
      <path d="M1186.3019 1775.2386 L1174.7816 1769.2151 L1177.3359 1774.4568 L1173.9128 1779.1772 Z" clip-path="url(#clipPath2)" stroke="none"/>
      <path fill="none" d="M1308.1055 1372.5446 L1589.6682 1371.3605 L1593.1809 1496.709" clip-path="url(#clipPath2)"/>
      <path d="M1593.405 1504.7058 L1598.0669 1492.5704 L1593.153 1495.7094 L1588.0708 1492.8506 Z" clip-path="url(#clipPath2)" stroke="none"/>
      <text x="1442.8794" font-size="20px" y="1349.7499" clip-path="url(#clipPath2)" font-family="sans-serif" stroke="none" xml:space="preserve">НЕТ</text>
      <path fill="none" d="M1594.6479 1607.4771 L1594.0082 1774.8405 L1203.8625 1775.6301" clip-path="url(#clipPath2)"/>
      <path d="M1195.8625 1775.6464 L1207.8727 1780.6219 L1204.8625 1775.6281 L1207.8524 1770.6221 Z" clip-path="url(#clipPath2)" stroke="none"/>
    </g>
  </g>
</svg>
