<?xml version="1.0" encoding="UTF-8"?><svg xmlns="http://www.w3.org/2000/svg" xmlns:xlink="http://www.w3.org/1999/xlink" fill-opacity="1" color-rendering="auto" color-interpolation="auto" text-rendering="auto" stroke="black" stroke-linecap="square" width="1123" stroke-miterlimit="10" shape-rendering="auto" stroke-opacity="1" fill="black" stroke-dasharray="none" font-weight="normal" stroke-width="1" height="732" font-family="'Dialog'" font-style="normal" stroke-linejoin="miter" font-size="12px" stroke-dashoffset="0" image-rendering="auto">
  <!--Generated by ySVG 2.5-->
  <defs id="genericDefs"/>
  <g>
    <defs id="defs1">
      <clipPath clipPathUnits="userSpaceOnUse" id="clipPath1">
        <path d="M0 0 L1123 0 L1123 732 L0 732 L0 0 Z"/>
      </clipPath>
      <clipPath clipPathUnits="userSpaceOnUse" id="clipPath2">
        <path d="M1274 1421 L3844.0195 1421 L3844.0195 3096.2041 L1274 3096.2041 L1274 1421 Z"/>
      </clipPath>
    </defs>
    <g fill="white" text-rendering="geometricPrecision" shape-rendering="geometricPrecision" transform="scale(0.437,0.437) translate(-1274,-1421)" stroke="white">
      <rect x="1274" width="2571" height="1676" y="1421" clip-path="url(#clipPath2)" stroke="none"/>
    </g>
    <g text-rendering="geometricPrecision" stroke-miterlimit="1.45" shape-rendering="geometricPrecision" transform="matrix(0.437,0,0,0.437,-556.6892,-620.9225)" stroke-linecap="butt">
      <ellipse rx="59" fill="none" ry="26" clip-path="url(#clipPath2)" cx="1934.1839" cy="1484.0572"/>
      <text x="1899.2328" font-size="20px" y="1491.9137" clip-path="url(#clipPath2)" font-family="sans-serif" stroke="none" xml:space="preserve">Начало</text>
    </g>
    <g text-rendering="geometricPrecision" stroke-miterlimit="1.45" shape-rendering="geometricPrecision" transform="matrix(0.437,0,0,0.437,-556.6892,-620.9225)" stroke-linecap="butt">
      <path fill="none" d="M1806.3789 1556.0573 L2084.6838 1556.0573 L2061.989 1645.0573 L1783.684 1645.0573 Z" clip-path="url(#clipPath2)"/>
      <text x="1812.0795" font-size="20px" y="1608.4137" clip-path="url(#clipPath2)" font-family="sans-serif" stroke="none" xml:space="preserve">Считать состояние кнопок</text>
    </g>
    <g text-rendering="geometricPrecision" stroke-miterlimit="1.45" shape-rendering="geometricPrecision" transform="matrix(0.437,0,0,0.437,-556.6892,-620.9225)" stroke-linecap="butt">
      <path fill="none" d="M1932.6606 1717.5032 L2152.8135 1820.5032 L1932.6606 1923.5032 L1712.5079 1820.5032 Z" clip-path="url(#clipPath2)"/>
      <text x="1726.8452" font-size="20px" y="1828.3596" clip-path="url(#clipPath2)" font-family="sans-serif" stroke="none" xml:space="preserve">Кнопка ПЕРЕДНЯЯ_ОСЬ_ВПЕРЕД нажата?</text>
    </g>
    <g text-rendering="geometricPrecision" shape-rendering="geometricPrecision" transform="matrix(0.437,0,0,0.437,-556.6892,-620.9225)">
      <circle r="2.2814" clip-path="url(#clipPath2)" cx="2481.3806" cy="1619.5824" stroke="none"/>
      <circle stroke-linecap="butt" clip-path="url(#clipPath2)" fill="none" r="2.2814" cx="2481.3806" cy="1619.5824" stroke-miterlimit="1.45"/>
    </g>
    <g text-rendering="geometricPrecision" stroke-miterlimit="1.45" shape-rendering="geometricPrecision" transform="matrix(0.437,0,0,0.437,-556.6892,-620.9225)" stroke-linecap="butt">
      <path fill="none" d="M1306.282 1953.679 L1777.6969 1953.679 L1777.6969 2082.429 L1306.282 2082.429 Z" clip-path="url(#clipPath2)"/>
      <text x="1351.6721" font-size="20px" y="2013.6594" clip-path="url(#clipPath2)" font-family="sans-serif" stroke="none" xml:space="preserve">Поворачивать переднюю ось по часовой</text>
      <text x="1307.7317" font-size="20px" y="2038.1614" clip-path="url(#clipPath2)" font-family="sans-serif" stroke="none" xml:space="preserve"> до тех, под пока моторы не встретят препятствие</text>
    </g>
    <g text-rendering="geometricPrecision" shape-rendering="geometricPrecision" transform="matrix(0.437,0,0,0.437,-556.6892,-620.9225)">
      <circle r="2.2814" clip-path="url(#clipPath2)" cx="2237.59" cy="2874.0868" stroke="none"/>
      <circle stroke-linecap="butt" clip-path="url(#clipPath2)" fill="none" r="2.2814" cx="2237.59" cy="2874.0868" stroke-miterlimit="1.45"/>
    </g>
    <g text-rendering="geometricPrecision" stroke-miterlimit="1.45" shape-rendering="geometricPrecision" transform="matrix(0.437,0,0,0.437,-556.6892,-620.9225)" stroke-linecap="butt">
      <path fill="none" d="M2296.5049 1924.6241 L2516.6577 2027.6241 L2296.5049 2130.6243 L2076.3521 2027.6241 Z" clip-path="url(#clipPath2)"/>
      <text x="2097.9551" font-size="20px" y="2035.4806" clip-path="url(#clipPath2)" font-family="sans-serif" stroke="none" xml:space="preserve">Кнопка ПЕРЕДНЯЯ_ОСЬ_НАЗАД нажата?</text>
    </g>
    <g text-rendering="geometricPrecision" stroke-miterlimit="1.45" shape-rendering="geometricPrecision" transform="matrix(0.437,0,0,0.437,-556.6892,-620.9225)" stroke-linecap="butt">
      <path fill="none" d="M1782.1263 2180.9336 L2253.5413 2180.9336 L2253.5413 2309.6836 L1782.1263 2309.6836 Z" clip-path="url(#clipPath2)"/>
      <text x="1806.4763" font-size="20px" y="2240.9141" clip-path="url(#clipPath2)" font-family="sans-serif" stroke="none" xml:space="preserve">Поворачивать переднюю ось против часовой</text>
      <text x="1783.5759" font-size="20px" y="2265.416" clip-path="url(#clipPath2)" font-family="sans-serif" stroke="none" xml:space="preserve"> до тех, под пока моторы не встретят препятствие</text>
    </g>
    <g text-rendering="geometricPrecision" stroke-miterlimit="1.45" shape-rendering="geometricPrecision" transform="matrix(0.437,0,0,0.437,-556.6892,-620.9225)" stroke-linecap="butt">
      <path fill="none" d="M2916.4072 2126.3958 L3136.5601 2229.3958 L2916.4072 2332.3958 L2696.2544 2229.3958 Z" clip-path="url(#clipPath2)"/>
      <text x="2725.0791" font-size="20px" y="2237.2522" clip-path="url(#clipPath2)" font-family="sans-serif" stroke="none" xml:space="preserve">Кнопка ЗАДНЯЯ_ОСЬ_ВПЕРЕД нажата?</text>
    </g>
    <g text-rendering="geometricPrecision" stroke-miterlimit="1.45" shape-rendering="geometricPrecision" transform="matrix(0.437,0,0,0.437,-556.6892,-620.9225)" stroke-linecap="butt">
      <path fill="none" d="M2360.9465 2335.5176 L2832.3613 2335.5176 L2832.3613 2464.2676 L2360.9465 2464.2676 Z" clip-path="url(#clipPath2)"/>
      <text x="2418.2898" font-size="20px" y="2395.498" clip-path="url(#clipPath2)" font-family="sans-serif" stroke="none" xml:space="preserve">Поворачивать заднюю ось по часовой</text>
      <text x="2362.3962" font-size="20px" y="2420" clip-path="url(#clipPath2)" font-family="sans-serif" stroke="none" xml:space="preserve"> до тех, под пока моторы не встретят препятствие</text>
    </g>
    <g text-rendering="geometricPrecision" stroke-miterlimit="1.45" shape-rendering="geometricPrecision" transform="matrix(0.437,0,0,0.437,-556.6892,-620.9225)" stroke-linecap="butt">
      <path fill="none" d="M3404.25 2278.1182 L3624.4028 2381.1182 L3404.25 2484.1182 L3184.0972 2381.1182 Z" clip-path="url(#clipPath2)"/>
      <text x="3220.1875" font-size="20px" y="2388.9746" clip-path="url(#clipPath2)" font-family="sans-serif" stroke="none" xml:space="preserve">Кнопка ЗАДНЯЯ_ОСЬ_НАЗАД нажата?</text>
    </g>
    <g text-rendering="geometricPrecision" stroke-miterlimit="1.45" shape-rendering="geometricPrecision" transform="matrix(0.437,0,0,0.437,-556.6892,-620.9225)" stroke-linecap="butt">
      <path fill="none" d="M2897.1309 2503.2927 L3368.5457 2503.2927 L3368.5457 2632.0427 L2897.1309 2632.0427 Z" clip-path="url(#clipPath2)"/>
      <text x="2921.481" font-size="20px" y="2563.2732" clip-path="url(#clipPath2)" font-family="sans-serif" stroke="none" xml:space="preserve">Поворачивать переднюю ось против часовой</text>
      <text x="2898.5806" font-size="20px" y="2587.7751" clip-path="url(#clipPath2)" font-family="sans-serif" stroke="none" xml:space="preserve"> до тех, под пока моторы не встретят препятствие</text>
    </g>
    <g text-rendering="geometricPrecision" stroke-miterlimit="1.45" shape-rendering="geometricPrecision" transform="matrix(0.437,0,0,0.437,-556.6892,-620.9225)" stroke-linecap="butt">
      <path fill="none" d="M1915.0444 2908.5181 L2560.9888 2908.5181 L2560.9888 3017.6499 L1915.0444 3017.6499 Z" clip-path="url(#clipPath2)"/>
      <text x="1930.4141" font-size="20px" y="2958.6895" clip-path="url(#clipPath2)" font-family="sans-serif" stroke="none" xml:space="preserve">УголПереднегоШасси = СЧИТАТЬ_УГОЛ_ПЕРЕДНЕГО_ШАССИ()</text>
      <text x="1957.1719" font-size="20px" y="2983.1914" clip-path="url(#clipPath2)" font-family="sans-serif" stroke="none" xml:space="preserve">УголЗаднегоШасси = СЧИТАТЬ_УГОЛ_ЗАДНЕГО_ШАССИ()</text>
    </g>
    <g text-rendering="geometricPrecision" stroke-miterlimit="1.45" shape-rendering="geometricPrecision" transform="matrix(0.437,0,0,0.437,-556.6892,-620.9225)" stroke-linecap="butt">
      <ellipse rx="59" fill="none" ry="26" clip-path="url(#clipPath2)" cx="2236.8329" cy="3068.4181"/>
      <text x="2210.085" font-size="20px" y="3076.2744" clip-path="url(#clipPath2)" font-family="sans-serif" stroke="none" xml:space="preserve">конец</text>
    </g>
    <g text-rendering="geometricPrecision" stroke-miterlimit="1.45" shape-rendering="geometricPrecision" transform="matrix(0.437,0,0,0.437,-556.6892,-620.9225)" stroke-linecap="butt">
      <path fill="none" d="M1934.184 1510.082 L1934.184 1548.0706" clip-path="url(#clipPath2)"/>
    </g>
    <g text-rendering="geometricPrecision" stroke-miterlimit="1.45" shape-rendering="geometricPrecision" transform="matrix(0.437,0,0,0.437,-556.6892,-620.9225)" stroke-linecap="butt">
      <path d="M1934.184 1556.0706 L1939.184 1544.0706 L1934.184 1547.0706 L1929.184 1544.0706 Z" stroke="none" clip-path="url(#clipPath2)"/>
      <path fill="none" d="M1933.8759 1645.0458 L1933.4271 1709.8248" clip-path="url(#clipPath2)"/>
      <path d="M1933.3717 1717.8246 L1938.4547 1705.8595 L1933.4341 1708.8248 L1928.455 1705.7903 Z" clip-path="url(#clipPath2)" stroke="none"/>
      <path fill="none" d="M1721.0887 1824.5118 L1536.8632 1828.0023 L1540.0378 1945.701" clip-path="url(#clipPath2)"/>
      <path d="M1540.2535 1953.6981 L1544.9282 1941.5676 L1540.0109 1944.7014 L1534.9318 1941.8373 Z" clip-path="url(#clipPath2)" stroke="none"/>
      <text x="1600.7378" font-size="20px" y="1804.3884" clip-path="url(#clipPath2)" font-family="sans-serif" stroke="none" xml:space="preserve">ДА</text>
      <path fill="none" d="M1540.4919 2082.4053 L1536.8632 2238.3491 L1552.1901 2870.7144 L2229.4202 2873.6069 L2235.3242 2873.9536" clip-path="url(#clipPath2)"/>
      <path d="M2235.3242 2873.9536 L2223.6379 2868.2588 L2226.3396 2873.426 L2223.0518 2878.2417 Z" clip-path="url(#clipPath2)" stroke="none"/>
      <path fill="none" d="M2151.1975 1819.7393 L2300.7983 1819.2162 L2298.772 1917.5844" clip-path="url(#clipPath2)"/>
      <path d="M2298.6072 1925.5826 L2303.8533 1913.6882 L2298.7925 1916.5846 L2293.8555 1913.4822 Z" clip-path="url(#clipPath2)" stroke="none"/>
      <text x="2196.8782" font-size="20px" y="1797.3658" clip-path="url(#clipPath2)" font-family="sans-serif" stroke="none" xml:space="preserve">НЕТ</text>
      <path fill="none" d="M2080.5322 2029.5763 L2019.5839 2030.1272 L2018.4225 2172.928" clip-path="url(#clipPath2)"/>
      <path d="M2018.3574 2180.9277 L2023.4548 2168.9688 L2018.4307 2171.928 L2013.4552 2168.8875 Z" clip-path="url(#clipPath2)" stroke="none"/>
      <text x="2024.1688" font-size="20px" y="2007.8195" clip-path="url(#clipPath2)" font-family="sans-serif" stroke="none" xml:space="preserve">ДА</text>
      <path fill="none" d="M2019.7267 2309.6729 L2036.3049 2873.3875 L2227.2803 2874.051" clip-path="url(#clipPath2)"/>
      <path d="M2235.2803 2874.0789 L2223.2979 2869.0371 L2226.2803 2874.0476 L2223.2629 2879.0371 Z" clip-path="url(#clipPath2)" stroke="none"/>
      <path fill="none" d="M2511.8096 2029.876 L2912.887 2034.0707 L2914.4229 2119.2996" clip-path="url(#clipPath2)"/>
      <path d="M2914.5671 2127.2983 L2919.3499 2115.2102 L2914.4048 2118.2998 L2909.3516 2115.3904 Z" clip-path="url(#clipPath2)" stroke="none"/>
      <text x="2708.4292" font-size="20px" y="2009.9963" clip-path="url(#clipPath2)" font-family="sans-serif" stroke="none" xml:space="preserve">НЕТ</text>
      <path fill="none" d="M2698.2432 2228.4702 L2594.3311 2228.0293 L2595.6753 2327.4866" clip-path="url(#clipPath2)"/>
      <path d="M2595.7834 2335.4858 L2600.6208 2323.4194 L2595.6619 2326.4866 L2590.6216 2323.5544 Z" clip-path="url(#clipPath2)" stroke="none"/>
      <text x="2621.6929" font-size="20px" y="2206.0586" clip-path="url(#clipPath2)" font-family="sans-serif" stroke="none" xml:space="preserve">ДА</text>
      <path fill="none" d="M2596.6382 2464.2693 L2596.5371 2875.2183 L2247.9124 2874.1194" clip-path="url(#clipPath2)"/>
      <path d="M2239.9124 2874.0942 L2251.8965 2879.1318 L2248.9124 2874.1226 L2251.928 2869.1321 Z" clip-path="url(#clipPath2)" stroke="none"/>
      <path fill="none" d="M3133.7461 2228.0896 L3406.5493 2226.4504 L3405.8896 2270.8254" clip-path="url(#clipPath2)"/>
      <path d="M3405.7708 2278.8245 L3410.9485 2266.9001 L3405.9045 2269.8254 L3400.9497 2266.7515 Z" clip-path="url(#clipPath2)" stroke="none"/>
      <text x="3264.9646" font-size="20px" y="2205.0369" clip-path="url(#clipPath2)" font-family="sans-serif" stroke="none" xml:space="preserve">НЕТ</text>
      <path fill="none" d="M3621.4236 2382.5068 L3821.925 2383.7888 L3831.0791 2890.927 L2247.8752 2874.1956" clip-path="url(#clipPath2)"/>
      <path d="M2239.8757 2874.1111 L2251.8223 2879.2375 L2248.8752 2874.2061 L2251.928 2869.238 Z" clip-path="url(#clipPath2)" stroke="none"/>
      <text x="3716.7756" font-size="20px" y="2356.1487" clip-path="url(#clipPath2)" font-family="sans-serif" stroke="none" xml:space="preserve">НЕТ</text>
      <path fill="none" d="M3190.6443 2384.186 L3128.4646 2385.0789 L3131.1038 2495.2556" clip-path="url(#clipPath2)"/>
      <path d="M3131.2954 2503.2534 L3136.0066 2491.137 L3131.0798 2494.2561 L3126.0093 2491.3767 Z" clip-path="url(#clipPath2)" stroke="none"/>
      <text x="3132.4019" font-size="20px" y="2362.6826" clip-path="url(#clipPath2)" font-family="sans-serif" stroke="none" xml:space="preserve">ДА</text>
      <path fill="none" d="M3134.28 2632.0051 L3139.906 2883.0798 L2247.8752 2874.1895" clip-path="url(#clipPath2)"/>
      <path d="M2239.8757 2874.1096 L2251.8252 2879.229 L2248.8752 2874.1995 L2251.925 2869.2297 Z" clip-path="url(#clipPath2)" stroke="none"/>
      <path fill="none" d="M2237.6011 2876.3899 L2237.7168 2900.5193" clip-path="url(#clipPath2)"/>
      <path d="M2237.7551 2908.5193 L2242.6975 2896.4954 L2237.7119 2899.5193 L2232.6978 2896.5435 Z" clip-path="url(#clipPath2)" stroke="none"/>
      <path fill="none" d="M2237.4036 3017.6284 L2237.2153 3034.3789" clip-path="url(#clipPath2)"/>
      <path d="M2237.1255 3042.3784 L2242.26 3030.4353 L2237.2266 3033.3789 L2232.2605 3030.323 Z" clip-path="url(#clipPath2)" stroke="none"/>
    </g>
  </g>
</svg>
