<?xml version="1.0" encoding="UTF-8"?><svg xmlns="http://www.w3.org/2000/svg" xmlns:xlink="http://www.w3.org/1999/xlink" fill-opacity="1" color-rendering="auto" color-interpolation="auto" text-rendering="auto" stroke="black" stroke-linecap="square" width="1675" stroke-miterlimit="10" shape-rendering="auto" stroke-opacity="1" fill="black" stroke-dasharray="none" font-weight="normal" stroke-width="1" height="912" font-family="'Dialog'" font-style="normal" stroke-linejoin="miter" font-size="12px" stroke-dashoffset="0" image-rendering="auto">
  <!--Generated by ySVG 2.5-->
  <defs id="genericDefs"/>
  <g>
    <defs id="defs1">
      <clipPath clipPathUnits="userSpaceOnUse" id="clipPath1">
        <path d="M0 0 L1675 0 L1675 912 L0 912 L0 0 Z"/>
      </clipPath>
      <clipPath clipPathUnits="userSpaceOnUse" id="clipPath2">
        <path d="M3515 -343 L6979.0947 -343 L6979.0947 1543.1221 L3515 1543.1221 L3515 -343 Z"/>
      </clipPath>
    </defs>
    <g fill="white" text-rendering="geometricPrecision" shape-rendering="geometricPrecision" transform="scale(0.4835,0.4835) translate(-3515,343)" stroke="white">
      <rect x="3515" width="3465" height="1887" y="-343" clip-path="url(#clipPath2)" stroke="none"/>
    </g>
    <g text-rendering="geometricPrecision" stroke-miterlimit="1.45" shape-rendering="geometricPrecision" transform="matrix(0.4835,0,0,0.4835,-1699.6143,165.8514)" stroke-linecap="butt">
      <path fill="none" d="M6978.5537 261.097 L7630.5537 261.097 L7630.5537 301.097 L6978.5537 301.097 Z" clip-path="url(#clipPath2)"/>
      <text x="6985.8037" font-size="20px" y="288.9534" clip-path="url(#clipPath2)" font-family="sans-serif" stroke="none" xml:space="preserve">отмасштабировать полученное значение по уровням (светодиодам)</text>
    </g>
    <g text-rendering="geometricPrecision" stroke-miterlimit="1.45" shape-rendering="geometricPrecision" transform="matrix(0.4835,0,0,0.4835,-1699.6143,165.8514)" stroke-linecap="butt">
      <path fill="none" d="M6978.5537 661.347 L7630.5537 661.347 L7630.5537 701.347 L6978.5537 701.347 Z" clip-path="url(#clipPath2)"/>
      <text x="6985.8037" font-size="20px" y="689.2034" clip-path="url(#clipPath2)" font-family="sans-serif" stroke="none" xml:space="preserve">отмасштабировать полученное значение по уровням (светодиодам)</text>
    </g>
    <g text-rendering="geometricPrecision" stroke-miterlimit="1.45" shape-rendering="geometricPrecision" transform="matrix(0.4835,0,0,0.4835,-1699.6143,165.8514)" stroke-linecap="butt">
      <ellipse rx="59" fill="none" ry="26" clip-path="url(#clipPath2)" cx="4822.3793" cy="4.3771"/>
      <text x="4787.4282" font-size="20px" y="12.2335" clip-path="url(#clipPath2)" font-family="sans-serif" stroke="none" xml:space="preserve">Начало</text>
    </g>
    <g text-rendering="geometricPrecision" stroke-miterlimit="1.45" shape-rendering="geometricPrecision" transform="matrix(0.4835,0,0,0.4835,-1699.6143,165.8514)" stroke-linecap="butt">
      <path fill="none" d="M4653.7407 76.3771 L5012.8623 76.3771 L4990.3403 164.6994 L4631.2183 164.6994 Z" clip-path="url(#clipPath2)"/>
      <text x="4646.147" font-size="20px" y="128.3947" clip-path="url(#clipPath2)" font-family="sans-serif" stroke="none" xml:space="preserve">Считать состояние кнопок и подвески</text>
    </g>
    <g text-rendering="geometricPrecision" stroke-miterlimit="1.45" shape-rendering="geometricPrecision" transform="matrix(0.4835,0,0,0.4835,-1699.6143,165.8514)" stroke-linecap="butt">
      <path fill="none" d="M4234.8066 388.1322 L4457.915 507.6771 L4234.8066 627.222 L4011.6987 507.6771 Z" clip-path="url(#clipPath2)"/>
      <text x="4023.9866" font-size="20px" y="515.5336" clip-path="url(#clipPath2)" font-family="sans-serif" stroke="none" xml:space="preserve">Кнопка увеличения угла передней подвески?</text>
    </g>
    <g text-rendering="geometricPrecision" stroke-miterlimit="1.45" shape-rendering="geometricPrecision" transform="matrix(0.4835,0,0,0.4835,-1699.6143,165.8514)" stroke-linecap="butt">
      <path fill="none" d="M4826.5156 407.9861 L5064.5142 505.1954 L4826.5156 602.4047 L4588.5171 505.1954 Z" clip-path="url(#clipPath2)"/>
      <text x="4612.0088" font-size="20px" y="513.0518" clip-path="url(#clipPath2)" font-family="sans-serif" stroke="none" xml:space="preserve">Кнопка уменьшения угла передней подвески?</text>
    </g>
    <g text-rendering="geometricPrecision" shape-rendering="geometricPrecision" transform="matrix(0.4835,0,0,0.4835,-1699.6143,165.8514)">
      <circle r="2.2814" clip-path="url(#clipPath2)" cx="4822.3793" cy="299.2572" stroke="none"/>
      <circle stroke-linecap="butt" clip-path="url(#clipPath2)" fill="none" r="2.2814" cx="4822.3793" cy="299.2572" stroke-miterlimit="1.45"/>
    </g>
    <g text-rendering="geometricPrecision" stroke-miterlimit="1.45" shape-rendering="geometricPrecision" transform="matrix(0.4835,0,0,0.4835,-1699.6143,165.8514)" stroke-linecap="butt">
      <path fill="none" d="M3655.5808 637.3681 L4100.1426 637.3681 L4100.1426 766.1181 L3655.5808 766.1181 Z" clip-path="url(#clipPath2)"/>
      <text x="3669.1606" font-size="20px" y="709.5995" clip-path="url(#clipPath2)" font-family="sans-serif" stroke="none" xml:space="preserve">Увеличить угол подъема передней подвески</text>
    </g>
    <g text-rendering="geometricPrecision" stroke-miterlimit="1.45" shape-rendering="geometricPrecision" transform="matrix(0.4835,0,0,0.4835,-1699.6143,165.8514)" stroke-linecap="butt">
      <path fill="none" d="M4472.6904 658.0486 L4922.2153 658.0486 L4922.2153 786.7986 L4472.6904 786.7986 Z" clip-path="url(#clipPath2)"/>
      <text x="4485.0649" font-size="20px" y="730.28" clip-path="url(#clipPath2)" font-family="sans-serif" stroke="none" xml:space="preserve">Уменьшить угол подъема передней подвески</text>
    </g>
    <g text-rendering="geometricPrecision" shape-rendering="geometricPrecision" transform="matrix(0.4835,0,0,0.4835,-1699.6143,165.8514)">
      <circle r="2.2814" clip-path="url(#clipPath2)" cx="4573.0961" cy="936.7739" stroke="none"/>
      <circle stroke-linecap="butt" clip-path="url(#clipPath2)" fill="none" r="2.2814" cx="4573.0961" cy="936.7739" stroke-miterlimit="1.45"/>
    </g>
    <g text-rendering="geometricPrecision" stroke-miterlimit="1.45" shape-rendering="geometricPrecision" transform="matrix(0.4835,0,0,0.4835,-1699.6143,165.8514)" stroke-linecap="butt">
      <ellipse rx="59" fill="none" ry="26" clip-path="url(#clipPath2)" cx="4573.0961" cy="1099.6896"/>
      <text x="4544.8979" font-size="20px" y="1107.546" clip-path="url(#clipPath2)" font-family="sans-serif" stroke="none" xml:space="preserve">Конец</text>
    </g>
    <g text-rendering="geometricPrecision" stroke-miterlimit="1.45" shape-rendering="geometricPrecision" transform="matrix(0.4835,0,0,0.4835,-1699.6143,165.8514)" stroke-linecap="butt">
      <path fill="none" d="M5740.917 404.1794 L5964.0249 523.7244 L5740.917 643.2693 L5517.8086 523.7244 Z" clip-path="url(#clipPath2)"/>
      <text x="5542.0498" font-size="20px" y="531.5808" clip-path="url(#clipPath2)" font-family="sans-serif" stroke="none" xml:space="preserve">Кнопка увеличения угла задней подвески?</text>
    </g>
    <g text-rendering="geometricPrecision" stroke-miterlimit="1.45" shape-rendering="geometricPrecision" transform="matrix(0.4835,0,0,0.4835,-1699.6143,165.8514)" stroke-linecap="butt">
      <path fill="none" d="M6332.6255 424.0333 L6570.624 521.2426 L6332.6255 618.4519 L6094.627 521.2426 Z" clip-path="url(#clipPath2)"/>
      <text x="6130.0718" font-size="20px" y="529.0991" clip-path="url(#clipPath2)" font-family="sans-serif" stroke="none" xml:space="preserve">Кнопка уменьшения угла задней подвески?</text>
    </g>
    <g text-rendering="geometricPrecision" stroke-miterlimit="1.45" shape-rendering="geometricPrecision" transform="matrix(0.4835,0,0,0.4835,-1699.6143,165.8514)" stroke-linecap="butt">
      <path fill="none" d="M5161.6909 653.4153 L5606.2529 653.4153 L5606.2529 782.1653 L5161.6909 782.1653 Z" clip-path="url(#clipPath2)"/>
      <text x="5187.2236" font-size="20px" y="725.6468" clip-path="url(#clipPath2)" font-family="sans-serif" stroke="none" xml:space="preserve">Увеличить угол подъема задней подвески</text>
    </g>
    <g text-rendering="geometricPrecision" stroke-miterlimit="1.45" shape-rendering="geometricPrecision" transform="matrix(0.4835,0,0,0.4835,-1699.6143,165.8514)" stroke-linecap="butt">
      <path fill="none" d="M5978.8003 674.0958 L6428.3257 674.0958 L6428.3257 802.8458 L5978.8003 802.8458 Z" clip-path="url(#clipPath2)"/>
      <text x="6003.1284" font-size="20px" y="746.3273" clip-path="url(#clipPath2)" font-family="sans-serif" stroke="none" xml:space="preserve">Уменьшить угол подъема задней подвески</text>
    </g>
    <g text-rendering="geometricPrecision" stroke-miterlimit="1.45" shape-rendering="geometricPrecision" transform="matrix(0.4835,0,0,0.4835,-1699.6143,165.8514)" stroke-linecap="butt">
      <path fill="none" d="M4822.3032 30.3829 L4822.1924 68.3851" clip-path="url(#clipPath2)"/>
    </g>
    <g text-rendering="geometricPrecision" stroke-miterlimit="1.45" shape-rendering="geometricPrecision" transform="matrix(0.4835,0,0,0.4835,-1699.6143,165.8514)" stroke-linecap="butt">
      <path d="M4822.1694 76.385 L4827.2036 64.3994 L4822.1953 67.3851 L4817.2041 64.3707 Z" stroke="none" clip-path="url(#clipPath2)"/>
      <path fill="none" d="M4822.124 164.7381 L4822.3599 288.9912" clip-path="url(#clipPath2)"/>
      <path d="M4822.375 296.9912 L4827.3521 284.9818 L4822.3579 287.9912 L4817.3525 285.0007 Z" clip-path="url(#clipPath2)" stroke="none"/>
      <path fill="none" d="M4822.4253 301.5449 L4824.4185 400.7911" clip-path="url(#clipPath2)"/>
      <path d="M4824.5791 408.7895 L4829.3369 396.6915 L4824.3984 399.7913 L4819.3394 396.8923 Z" clip-path="url(#clipPath2)" stroke="none"/>
      <path fill="none" d="M4820.1104 299.2954 L4232.3252 309.1842 L4234.5454 380.1156" clip-path="url(#clipPath2)"/>
      <path d="M4234.7959 388.1117 L4239.4175 375.961 L4234.5142 379.1161 L4229.4229 376.2741 Z" clip-path="url(#clipPath2)" stroke="none"/>
      <path fill="none" d="M4011.6726 507.6771 L3877.8618 507.6771 L3877.8618 629.3545" clip-path="url(#clipPath2)"/>
      <path d="M3877.8618 637.3545 L3882.8618 625.3545 L3877.8618 628.3545 L3872.8618 625.3545 Z" clip-path="url(#clipPath2)" stroke="none"/>
      <text x="3921.1167" font-size="20px" y="485.5335" clip-path="url(#clipPath2)" font-family="sans-serif" stroke="none" xml:space="preserve">ДА</text>
      <path fill="none" d="M4593.6646 507.2945 L4551.2212 507.6771 L4551.2212 607.0864 L4694.9712 607.0864 L4695.895 650.027" clip-path="url(#clipPath2)"/>
      <path d="M4696.0674 658.0251 L4700.8076 645.9202 L4695.8735 649.0272 L4690.8101 646.1357 Z" clip-path="url(#clipPath2)" stroke="none"/>
      <text x="4546.832" font-size="20px" y="485.4507" clip-path="url(#clipPath2)" font-family="sans-serif" stroke="none" xml:space="preserve">ДА</text>
      <path fill="none" d="M4696.7075 786.8176 L4694.9712 936.7739 L4583.3872 936.7739" clip-path="url(#clipPath2)"/>
      <path d="M4575.3872 936.7739 L4587.3872 941.7739 L4584.3872 936.7739 L4587.3872 931.7739 Z" clip-path="url(#clipPath2)" stroke="none"/>
      <path fill="none" d="M3877.8618 766.1363 L3877.8618 918.0239 L4566.8462 936.7739 L4570.8013 936.7739" clip-path="url(#clipPath2)"/>
      <path d="M4570.8013 936.7739 L4558.8013 931.7739 L4561.8013 936.7739 L4558.8013 941.7739 Z" clip-path="url(#clipPath2)" stroke="none"/>
      <path fill="none" d="M4457.9419 507.6771 L4510.3872 507.6771 L4510.3872 615.9644 L4405.3872 615.9644 L4405.3872 905.9644 L4573.0962 905.9644 L4573.0962 926.5174" clip-path="url(#clipPath2)"/>
      <path d="M4573.0962 934.5174 L4578.0962 922.5174 L4573.0962 925.5174 L4568.0962 922.5174 Z" clip-path="url(#clipPath2)" stroke="none"/>
      <text x="4464.1509" font-size="20px" y="485.5335" clip-path="url(#clipPath2)" font-family="sans-serif" stroke="none" xml:space="preserve">НЕТ</text>
      <path fill="none" d="M5063.1948 505.7373 L5128.8726 505.6978 L5128.1411 948.6674 L4583.3643 936.994" clip-path="url(#clipPath2)"/>
      <path d="M4575.3662 936.8226 L4587.2563 942.0785 L4584.3643 937.0154 L4587.4707 932.0808 Z" clip-path="url(#clipPath2)" stroke="none"/>
      <text x="5071.5142" font-size="20px" y="490.0049" clip-path="url(#clipPath2)" font-family="sans-serif" stroke="none" xml:space="preserve">НЕТ</text>
      <path fill="none" d="M4573.0962 939.0411 L4573.0962 1065.6862" clip-path="url(#clipPath2)"/>
      <path d="M4573.0962 1073.6862 L4578.0962 1061.6862 L4573.0962 1064.6862 L4568.0962 1061.6862 Z" clip-path="url(#clipPath2)" stroke="none"/>
      <path fill="none" d="M4824.6475 299.2688 L5739.9033 303.9334 L5740.3301 396.4653" clip-path="url(#clipPath2)"/>
      <path d="M5740.3672 404.4652 L5745.3115 392.4421 L5740.3252 395.4653 L5735.3115 392.4885 Z" clip-path="url(#clipPath2)" stroke="none"/>
      <path fill="none" d="M5742.1997 642.6004 L5745.6577 963.0805 L4583.3486 937.004" clip-path="url(#clipPath2)"/>
      <path d="M4575.3506 936.8245 L4587.2354 942.0924 L4584.3481 937.0264 L4587.46 932.095 Z" clip-path="url(#clipPath2)" stroke="none"/>
      <path fill="none" d="M5963.8442 523.6241 L6004.0991 523.606 L6005.3398 626.1846 L5927.1816 625.2581 L5922.6152 965.3556 L4583.3594 936.9913" clip-path="url(#clipPath2)"/>
      <path d="M4575.3613 936.8219 L4587.2529 942.0748 L4584.3594 937.0125 L4587.4644 932.0771 Z" clip-path="url(#clipPath2)" stroke="none"/>
      <text x="5964.0483" font-size="20px" y="501.4714" clip-path="url(#clipPath2)" font-family="sans-serif" stroke="none" xml:space="preserve">НЕТ</text>
      <path fill="none" d="M4824.6309 299.2699 L6328.2407 307.7474 L6330.4814 416.8431" clip-path="url(#clipPath2)"/>
      <path d="M6330.6455 424.8414 L6335.3984 412.7414 L6330.4609 415.8433 L6325.4004 412.9465 Z" clip-path="url(#clipPath2)" stroke="none"/>
      <path fill="none" d="M6565.0591 518.9785 L6638.0137 518.2679 L6642.1499 983.5941 L4583.3989 937.0071" clip-path="url(#clipPath2)"/>
      <path d="M4575.4009 936.826 L4587.2847 942.0963 L4584.3984 937.0297 L4587.5107 932.0989 Z" clip-path="url(#clipPath2)" stroke="none"/>
      <text x="6597.6729" font-size="20px" y="496.321" clip-path="url(#clipPath2)" font-family="sans-serif" stroke="none" xml:space="preserve">НЕТ</text>
      <path fill="none" d="M5517.7827 523.7244 L5383.9717 523.7244 L5383.9717 645.4017" clip-path="url(#clipPath2)"/>
      <path d="M5383.9717 653.4017 L5388.9717 641.4017 L5383.9717 644.4017 L5378.9717 641.4017 Z" clip-path="url(#clipPath2)" stroke="none"/>
      <text x="5427.2266" font-size="20px" y="501.5808" clip-path="url(#clipPath2)" font-family="sans-serif" stroke="none" xml:space="preserve">ДА</text>
      <path fill="none" d="M5382.9824 782.1844 L5380.3457 953.8153 L4583.4102 936.9916" clip-path="url(#clipPath2)"/>
      <path d="M4575.4121 936.8228 L4587.3037 942.075 L4584.4102 937.0128 L4587.5151 932.0771 Z" clip-path="url(#clipPath2)" stroke="none"/>
      <path fill="none" d="M6099.7744 523.3417 L6057.3311 523.7244 L6057.3311 623.1337 L6201.0811 623.1337 L6202.0054 666.0742" clip-path="url(#clipPath2)"/>
      <path d="M6202.1772 674.0724 L6206.9185 661.9677 L6201.9839 665.0745 L6196.9204 662.1826 Z" clip-path="url(#clipPath2)" stroke="none"/>
      <text x="6052.9424" font-size="20px" y="501.498" clip-path="url(#clipPath2)" font-family="sans-serif" stroke="none" xml:space="preserve">ДА</text>
      <path fill="none" d="M6204.4321 802.8666 L6206.7422 974.0807 L4583.3374 937.0078" clip-path="url(#clipPath2)"/>
      <path d="M4575.3394 936.8251 L4587.2222 942.0978 L4584.3369 937.0306 L4587.4502 932.1005 Z" clip-path="url(#clipPath2)" stroke="none"/>
    </g>
  </g>
</svg>
